<svg xmlns="http://www.w3.org/2000/svg" viewBox="0 0 148.67 78.39"><defs><style>.cls-1{fill:#3b97d3;}.cls-2{fill:#231f20;}.cls-3{fill:#232e42;}.cls-4{fill:#fff;}</style></defs><title>Asset 3</title><g id="Layer_2" data-name="Layer 2"><g id="Layer_1-2" data-name="Layer 1"><rect class="cls-1" x="97.15" width="51.52" height="52.48" rx="2.99" ry="2.99"/><path class="cls-2" d="M26.35,35.41c-1.2,6.46-5.77,10.74-12.53,10.74C6.21,46.14.39,41.05.39,31.3S5.57,15.82,13.91,15.82c7.27,0,11.89,4.53,12.45,10.27H19a4.82,4.82,0,0,0-5.09-4c-4.36,0-6.16,3.34-6.16,8.77s1.67,8.9,5.82,8.9c3.21,0,4.75-1.63,5.43-4.36Z"/><path class="cls-2" d="M27,34.64C27,28,31.23,23.56,38.07,23.56S49,27.92,49,34.64,44.79,45.72,38.07,45.72C31.1,45.72,27,41.18,27,34.64Zm15.14,0c0-3.76-1.28-5.3-4.06-5.3s-4,1.54-4,5.3,1.24,5.35,4,5.35S42.14,38.36,42.14,34.64Z"/><path class="cls-2" d="M64.67,45.16l-.09-2.4a5.69,5.69,0,0,1-5.09,3c-5.3,0-9.11-4.32-9.11-11.33,0-6.12,3.08-10.82,8.51-10.82,2.44,0,4.53.73,5.6,3V16.42h6.71V45.16Zm.09-10.44c0-3.85-1.54-5.35-3.81-5.35s-3.63,1.45-3.63,5.35,1.37,5.43,3.63,5.43S64.76,38.57,64.76,34.72Z"/><path class="cls-2" d="M79.82,36.35c.17,2.14,1.67,3.93,3.59,3.93,1.33,0,2.57-.56,2.78-1.33h7c-1.33,4.32-4.88,6.76-9.45,6.76C76.56,45.72,73,41.82,73,34.25c0-6.5,3.81-10.69,10.39-10.69,6,0,10.18,3.55,10.18,10.52a20.74,20.74,0,0,1-.13,2.27Zm6.89-4c-.21-2.4-1.28-3.42-3.38-3.42s-3.21,1-3.42,3.42Z"/><path class="cls-2" d="M16.53,57c0-2.4-1.44-3.66-4.93-3.66-2.75,0-4.19.7-4.19,2.62,0,1.13.74,2.22,3.75,3.1,9.07,2.66,13.21,3.84,13.21,10.51,0,5.67-4.49,8.85-11.21,8.85-9,0-13-3.31-13.17-9.68H6.93C7,71,9.33,72.37,12.17,72.37c4,0,5.19-1,5.19-2.83,0-1.61-1-2.36-4.1-3.31C3.92,63.35.65,61.86.65,56.24c0-5,3.58-8.76,10.86-8.76,7,0,11.47,3.88,11.82,9.51Z"/><path class="cls-2" d="M46.57,69.63C46,74.6,41.77,78,36.45,78c-6,0-10.07-3.88-10.07-11.56s4.1-11,10.25-11c5.76,0,9.64,3.18,10,8.24h-7a3,3,0,0,0-3-2.49c-1.7,0-3.31,1.09-3.31,5.1s1.61,5.89,3.14,5.89c1.7,0,3-.83,3.14-2.49Z"/><path class="cls-2" d="M49.14,53.36V48.08h7v5.28Zm0,24V55.93h7V77.39Z"/><path class="cls-2" d="M66,68.4c.18,2.18,1.7,4,3.66,4,1.35,0,2.62-.57,2.83-1.35h7.15C78.31,75.47,74.69,78,70,78c-7.33,0-11-4-11-11.69,0-6.63,3.88-10.9,10.6-10.9C75.74,55.37,80,59,80,66.09a21.14,21.14,0,0,1-.13,2.31Zm7-4.06c-.22-2.44-1.31-3.49-3.44-3.49s-3.27,1-3.49,3.49Z"/><path class="cls-2" d="M95.66,77.39V63.78c0-2.09-1-2.92-2.88-2.92s-3.1.83-3.1,2.92V77.39h-7V55.93h6.63V58.2c1.18-2,3.18-2.83,6-2.83,4.32,0,7.37,2.83,7.37,6.5V77.39Z"/><path class="cls-2" d="M125.7,69.63c-.61,5-4.8,8.33-10.12,8.33-6,0-10.07-3.88-10.07-11.56s4.1-11,10.25-11c5.76,0,9.64,3.18,10,8.24h-7a3,3,0,0,0-3-2.49c-1.7,0-3.31,1.09-3.31,5.1s1.61,5.89,3.14,5.89c1.7,0,3-.83,3.14-2.49Z"/><path class="cls-2" d="M134.64,68.4c.18,2.18,1.7,4,3.66,4,1.35,0,2.62-.57,2.83-1.35h7.15c-1.35,4.4-5,6.89-9.64,6.89-7.33,0-11-4-11-11.69,0-6.63,3.88-10.9,10.6-10.9,6.1,0,10.38,3.62,10.38,10.73a21.14,21.14,0,0,1-.13,2.31Zm7-4.06c-.22-2.44-1.31-3.49-3.44-3.49s-3.27,1-3.49,3.49Z"/><rect class="cls-3" x="107.89" y="8.61" width="10.45" height="2.38"/><rect class="cls-4" x="107.89" y="23.58" width="10.45" height="2.38"/><rect class="cls-4" x="122.72" y="23.58" width="9.61" height="2.38"/><rect class="cls-4" x="134.89" y="23.58" width="5.57" height="2.38"/><rect class="cls-4" x="107.89" y="28.02" width="10.44" height="2.38"/><rect class="cls-4" x="107.82" y="32.46" width="10.51" height="2.38"/><rect class="cls-4" x="122.72" y="32.46" width="9.61" height="2.38"/><rect class="cls-4" x="107.83" y="36.94" width="10.51" height="2.38"/><rect class="cls-4" x="132.32" y="36.94" width="8.14" height="2.38"/><rect class="cls-4" x="115.96" y="41.49" width="2.38" height="2.38"/><rect class="cls-4" x="122.71" y="41.49" width="17.76" height="2.38"/><rect class="cls-4" x="107.89" y="41.49" width="5.85" height="2.38"/><rect class="cls-3" x="107.89" y="13.2" width="10.45" height="2.38"/><rect class="cls-4" x="113.62" y="19.13" width="4.72" height="2.38"/><rect class="cls-4" x="107.89" y="19.13" width="3.47" height="2.38"/><rect class="cls-4" x="122.71" y="19.13" width="17.76" height="1.69"/><rect class="cls-4" x="122.71" y="28.02" width="9.62" height="2.38"/></g></g></svg>