<svg xmlns="http://www.w3.org/2000/svg" viewBox="0 0 114.95 188.87"><defs><style>.cls-1{fill:#edf0f1;}.cls-2{fill:#bdc3c7;}.cls-3{fill:#f47a37;}.cls-4{fill:#e75825;}.cls-5{fill:#4c7abd;}.cls-6{fill:#8797ca;}.cls-7{fill:#fabf13;}.cls-8{fill:#e54d3c;}.cls-9{fill:#f49e1e;}.cls-10{fill:#3b97d3;}.cls-11{fill:#50ba6f;}.cls-12{fill:#925ea7;}</style></defs><title>Asset 7</title><g id="Layer_2" data-name="Layer 2"><g id="Layer_1-2" data-name="Layer 1"><path class="cls-1" d="M86.44,34.81c-.65-1.36-29,8.53-29,8.53s-28.32-9.89-29-8.53l.11.08C4.29,86.26,37,143.5,37,143.5a3.87,3.87,0,0,0,3.4,2H74.79a3.75,3.75,0,0,0,3.35-2s32.64-57.28,8.27-108.66Z"/><path class="cls-2" d="M86.41,34.84c24.38,51.39-8.26,108.66-8.26,108.66a3.75,3.75,0,0,1-3.35,2H57.47V43.34C72.25,42.39,81.42,38.31,86.41,34.84Z"/><path class="cls-3" d="M57.47,0c-10.75,0-23.1,22.44-29,34.81,5,3.48,14.19,7.58,29,8.53,14.78-1,24-5.05,29-8.53C80.57,22.44,68.22,0,57.47,0Z"/><path class="cls-4" d="M57.47,0V43.34c14.78-1,24-5.05,29-8.53C80.57,22.44,68.22,0,57.47,0Z"/><path class="cls-3" d="M28.65,104.78l11.74,32.91a1.44,1.44,0,0,1-1.49,2.06S17,137.44,17,158c0,0,.09,1.8-1.53,1.8H7a3.72,3.72,0,0,1-3.14-2.05S-14.42,116,28.65,104.78Z"/><path class="cls-4" d="M86.3,104.78,74.56,137.68A1.44,1.44,0,0,0,76,139.74S98,137.44,98,158c0,0-.09,1.8,1.53,1.8H108a3.72,3.72,0,0,0,3.14-2.05S129.37,116,86.3,104.78Z"/><circle class="cls-5" cx="57.36" cy="73.1" r="21.12"/><path class="cls-1" d="M57.36,90.11a17,17,0,1,1,17-17A17,17,0,0,1,57.36,90.11Z"/><rect class="cls-6" x="44.71" y="147.14" width="17.85" height="4.86"/><rect class="cls-7" x="64.87" y="147.14" width="6.89" height="4.86"/><rect class="cls-8" x="52.24" y="154.81" width="22.71" height="4.86"/><rect class="cls-9" x="41.58" y="154.81" width="8.66" height="4.86"/><rect class="cls-9" x="52.24" y="177.02" width="6.09" height="4.86"/><rect class="cls-10" x="60.62" y="177.02" width="12.63" height="4.86"/><rect class="cls-11" x="41.58" y="177.02" width="8.66" height="4.86"/><rect class="cls-11" x="48.25" y="161.79" width="9.11" height="4.86"/><rect class="cls-7" x="60.19" y="161.79" width="9.11" height="4.86"/><rect class="cls-12" x="51.7" y="184.01" width="14.96" height="4.86"/><rect class="cls-9" x="34.12" y="161.79" width="11.47" height="4.86"/><rect class="cls-10" x="71.67" y="161.79" width="11.47" height="4.86"/><rect class="cls-8" x="47.07" y="169.21" width="23.36" height="4.86"/><rect class="cls-9" x="31.36" y="169.21" width="12.77" height="4.86"/><rect class="cls-9" x="73.14" y="169.21" width="12.77" height="4.86"/></g></g></svg>