<svg xmlns="http://www.w3.org/2000/svg" viewBox="0 0 250.91 107.06"><defs><style>.cls-1{fill:#4c4c4d;}.cls-2{fill:#3997d3;}.cls-3{fill:#e54d3c;}</style></defs><title>Asset 5</title><g id="Layer_2" data-name="Layer 2"><g id="Layer_1-2" data-name="Layer 1"><path class="cls-1" d="M45.09,33.52c-2,11.05-9.88,18.37-21.44,18.37-13,0-23-8.71-23-25.39C.67,10,9.53,0,23.8,0c12.44,0,20.34,7.76,21.3,17.56H32.58c-1-4.68-4.46-6.81-8.71-6.81-7.46,0-10.54,5.71-10.54,15S16.19,41,23.28,41c5.49,0,8.12-2.78,9.29-7.47Z"/><path class="cls-1" d="M46.19,32.2c0-11.42,7.25-19,19-19s18.73,7.46,18.73,19-7.25,19-18.73,19C53.22,51.15,46.19,43.4,46.19,32.2Zm25.91,0c0-6.44-2.2-9.07-7-9.07s-6.88,2.63-6.88,9.07,2.12,9.15,6.88,9.15S72.1,38.57,72.1,32.2Z"/><path class="cls-1" d="M110.66,50.2l-.15-4.1a9.74,9.74,0,0,1-8.71,5c-9.07,0-15.59-7.39-15.59-19.39,0-10.47,5.27-18.51,14.56-18.51,4.17,0,7.76,1.24,9.59,5V1h11.49V50.2Zm.15-17.86c0-6.59-2.63-9.15-6.51-9.15s-6.22,2.49-6.22,9.15,2.34,9.29,6.22,9.29S110.81,38.93,110.81,32.35Z"/><path class="cls-1" d="M136.57,35.13c.29,3.66,2.86,6.73,6.15,6.73,2.27,0,4.39-1,4.76-2.27h12c-2.27,7.39-8.34,11.56-16.17,11.56-12.29,0-18.44-6.66-18.44-19.61,0-11.12,6.51-18.3,17.78-18.3,10.24,0,17.42,6.07,17.42,18a35.48,35.48,0,0,1-.22,3.88Zm11.78-6.81c-.37-4.1-2.19-5.85-5.78-5.85s-5.49,1.76-5.85,5.85Z"/><path class="cls-1" d="M28.28,70.43c-.07-4.1-2.46-6.27-8.43-6.27-4.7,0-7.16,1.19-7.16,4.48,0,1.94,1.27,3.81,6.42,5.3,15.52,4.55,22.61,6.57,22.61,18,0,9.7-7.69,15.15-19.18,15.15C7.09,107.06.37,101.39,0,90.5H11.86c.15,3.88,4.1,6.27,9,6.27,6.86,0,8.88-1.72,8.88-4.85,0-2.76-1.79-4-7-5.67-16-4.92-21.56-7.46-21.56-17.09,0-8.58,6.12-15,18.58-15,12,0,19.62,6.64,20.22,16.27Z"/><path class="cls-1" d="M78,92.07c-1,8.51-8.21,14.25-17.31,14.25-10.22,0-17.24-6.64-17.24-19.77s7-18.88,17.53-18.88c9.85,0,16.49,5.45,17.09,14.1H66a5.07,5.07,0,0,0-5.15-4.25c-2.91,0-5.67,1.86-5.67,8.73S58,96.32,60.59,96.32c2.91,0,5.15-1.42,5.37-4.25Z"/><path class="cls-1" d="M82.37,64.24v-9H94.31v9Zm0,41.11V68.64H94.31v36.71Z"/><path class="cls-1" d="M111.24,90c.3,3.73,2.91,6.86,6.27,6.86,2.31,0,4.48-1,4.85-2.31h12.24c-2.31,7.54-8.51,11.79-16.49,11.79-12.53,0-18.8-6.79-18.8-20,0-11.34,6.64-18.65,18.13-18.65,10.45,0,17.76,6.19,17.76,18.36a36.18,36.18,0,0,1-.23,4Zm12-6.94c-.37-4.18-2.24-6-5.89-6-3.51,0-5.6,1.79-6,6Z"/><path class="cls-1" d="M162,105.35V82.07c0-3.58-1.72-5-4.92-5s-5.3,1.42-5.3,5v23.28H139.81V68.64h11.34v3.88c2-3.36,5.45-4.85,10.22-4.85,7.39,0,12.61,4.85,12.61,11.12v26.56Z"/><path class="cls-1" d="M213.38,92.07c-1,8.51-8.21,14.25-17.31,14.25-10.22,0-17.24-6.64-17.24-19.77s7-18.88,17.53-18.88c9.85,0,16.49,5.45,17.09,14.1h-12a5.07,5.07,0,0,0-5.15-4.25c-2.91,0-5.67,1.86-5.67,8.73s2.76,10.07,5.37,10.07c2.91,0,5.15-1.42,5.37-4.25Z"/><path class="cls-1" d="M227,90c.3,3.73,2.91,6.86,6.27,6.86,2.31,0,4.48-1,4.85-2.31h12.24c-2.31,7.54-8.51,11.79-16.49,11.79-12.53,0-18.8-6.79-18.8-20,0-11.34,6.64-18.65,18.13-18.65,10.45,0,17.76,6.19,17.76,18.36a36.18,36.18,0,0,1-.23,4ZM239,83c-.37-4.18-2.24-6-5.89-6-3.51,0-5.6,1.79-6,6Z"/><path class="cls-1" d="M193.5,15.61V8.74h9.09v6.87Zm0,31.3V19h9.09v28Z"/><path class="cls-1" d="M221.9,27.43c-.17-2-1.08-3-3.86-3s-3.69.68-3.69,1.82c0,.85,1.25,1.65,3.3,2.22,7.78,2.1,13.41,3.18,13.41,9.83,0,5.62-2.9,9.32-12.73,9.32-8.47,0-13.46-3.81-13.58-9.72H214c0,1.82,1.59,3.3,4.43,3.3,2.56,0,3.86-.51,3.86-1.76s-.51-1.93-2.84-2.5c-10.91-2.56-13.69-5.34-13.69-10.68,0-4.15,3-8.07,12.5-8.07,8.35,0,11.59,3.47,12,9.2Z"/><path class="cls-2" d="M179.87,57A41.45,41.45,0,0,1,170,30.2a37.9,37.9,0,0,1,9.9-25.77h6.94a53.45,53.45,0,0,0-7,25.89,56.82,56.82,0,0,0,7,26.67Z"/><path class="cls-3" d="M234,57a57.46,57.46,0,0,0,6.94-26.67A53.38,53.38,0,0,0,234,4.43h6.94a37.9,37.9,0,0,1,9.9,25.77,41.45,41.45,0,0,1-9.9,26.8Z"/></g></g></svg>