<svg xmlns="http://www.w3.org/2000/svg" viewBox="0 0 333.67 108.24"><defs><style>.cls-1{fill:#4c4c4d;}.cls-2,.cls-3{fill:none;stroke-miterlimit:10;stroke-width:6.84px;}.cls-2{stroke:#3b97d3;}.cls-3{stroke:#e54d3c;}.cls-4{fill:#e54d3c;}.cls-5{fill:#3b97d3;}.cls-6{fill:#50ba6f;}.cls-7{fill:#f8962e;}.cls-8{fill:#925ea7;}.cls-9{fill:#fabf13;}.cls-10{fill:#8797ca;}.cls-11{fill:#3997d3;}</style></defs><title>Asset 1</title><g id="Layer_2" data-name="Layer 2"><g id="Layer_1-2" data-name="Layer 1"><path class="cls-1" d="M127.85,34.69c-2,11.05-9.88,18.37-21.44,18.37-13,0-23-8.71-23-25.39,0-16.47,8.86-26.49,23.13-26.49,12.44,0,20.34,7.76,21.3,17.56H115.34c-1-4.68-4.46-6.81-8.71-6.81-7.46,0-10.54,5.71-10.54,15s2.85,15.22,10,15.22c5.49,0,8.12-2.78,9.29-7.47Z"/><path class="cls-1" d="M128.95,33.38c0-11.42,7.25-19,19-19s18.73,7.46,18.73,19-7.25,19-18.73,19C136,52.33,128.95,44.57,128.95,33.38Zm25.91,0c0-6.44-2.2-9.07-7-9.07S141,26.94,141,33.38s2.12,9.15,6.88,9.15S154.85,39.74,154.85,33.38Z"/><path class="cls-1" d="M193.42,51.38l-.15-4.1a9.74,9.74,0,0,1-8.71,5c-9.07,0-15.59-7.39-15.59-19.39,0-10.47,5.27-18.51,14.56-18.51,4.17,0,7.76,1.24,9.59,5V2.2h11.49V51.38Zm.15-17.86c0-6.59-2.63-9.15-6.51-9.15s-6.22,2.49-6.22,9.15,2.34,9.29,6.22,9.29S193.57,40.11,193.57,33.52Z"/><path class="cls-1" d="M219.33,36.31c.29,3.66,2.86,6.73,6.15,6.73,2.27,0,4.39-1,4.76-2.27h12c-2.27,7.39-8.34,11.56-16.17,11.56-12.29,0-18.44-6.66-18.44-19.61,0-11.12,6.51-18.3,17.78-18.3,10.24,0,17.42,6.07,17.42,18a35.48,35.48,0,0,1-.22,3.88Zm11.78-6.81c-.37-4.1-2.19-5.85-5.78-5.85s-5.49,1.76-5.85,5.85Z"/><path class="cls-1" d="M111,71.61c-.07-4.1-2.46-6.27-8.43-6.27-4.7,0-7.16,1.19-7.16,4.48,0,1.94,1.27,3.81,6.42,5.3,15.52,4.55,22.61,6.57,22.61,18,0,9.7-7.69,15.15-19.18,15.15-15.45,0-22.16-5.67-22.53-16.56H94.62c.15,3.88,4.1,6.27,9,6.27,6.86,0,8.88-1.72,8.88-4.85,0-2.76-1.79-4-7-5.67C89.47,82.5,83.88,80,83.88,70.34c0-8.58,6.12-15,18.58-15,12,0,19.62,6.64,20.22,16.27Z"/><path class="cls-1" d="M160.73,93.25c-1,8.51-8.21,14.25-17.31,14.25-10.22,0-17.24-6.64-17.24-19.77s7-18.88,17.53-18.88c9.85,0,16.49,5.45,17.09,14.1h-12a5.07,5.07,0,0,0-5.15-4.25c-2.91,0-5.67,1.86-5.67,8.73s2.76,10.07,5.37,10.07c2.91,0,5.15-1.42,5.37-4.25Z"/><path class="cls-1" d="M165.13,65.41v-9h11.94v9Zm0,41.11V69.82h11.94v36.71Z"/><path class="cls-1" d="M194,91.16c.3,3.73,2.91,6.86,6.27,6.86,2.31,0,4.48-1,4.85-2.31h12.24c-2.31,7.54-8.51,11.79-16.49,11.79-12.53,0-18.8-6.79-18.8-20,0-11.34,6.64-18.65,18.13-18.65,10.45,0,17.76,6.19,17.76,18.36a36.18,36.18,0,0,1-.23,4Zm12-6.94c-.37-4.18-2.24-6-5.89-6-3.51,0-5.6,1.79-6,6Z"/><path class="cls-1" d="M244.73,106.53V83.25c0-3.58-1.72-5-4.92-5s-5.3,1.42-5.3,5v23.28H222.57V69.82h11.34V73.7c2-3.36,5.45-4.85,10.22-4.85,7.39,0,12.61,4.85,12.61,11.12v26.56Z"/><path class="cls-1" d="M296.13,93.25c-1,8.51-8.21,14.25-17.31,14.25-10.22,0-17.24-6.64-17.24-19.77s7-18.88,17.53-18.88c9.85,0,16.49,5.45,17.09,14.1h-12A5.07,5.07,0,0,0,279,78.7c-2.91,0-5.67,1.86-5.67,8.73s2.76,10.07,5.37,10.07c2.91,0,5.15-1.42,5.37-4.25Z"/><path class="cls-1" d="M309.71,91.16C310,94.89,312.63,98,316,98c2.31,0,4.48-1,4.85-2.31h12.24c-2.31,7.54-8.51,11.79-16.49,11.79-12.53,0-18.8-6.79-18.8-20,0-11.34,6.64-18.65,18.13-18.65,10.45,0,17.76,6.19,17.76,18.36a36.18,36.18,0,0,1-.23,4Zm12-6.94c-.37-4.18-2.24-6-5.89-6-3.51,0-5.6,1.79-6,6Z"/><path class="cls-2" d="M3.56.21v23s-2,28.08,30.91,30.72l5,.24S69.1,54.81,71,86.66v21.06"/><path class="cls-3" d="M71,0V23.16S73,51.3,40,53.94l-5,.24S5.31,54.81,3.42,86.73v21.12"/><rect class="cls-4" x="17.93" y="11.94" width="15.01" height="2.96"/><rect class="cls-5" x="36.35" y="11.94" width="11.92" height="2.96"/><rect class="cls-6" x="17.93" y="17.45" width="15.01" height="2.96"/><rect class="cls-4" x="17.93" y="22.96" width="17.96" height="2.96"/><rect class="cls-7" x="38.66" y="22.96" width="9.61" height="2.96"/><rect class="cls-6" x="17.93" y="28.53" width="24.9" height="2.96"/><rect class="cls-8" x="45.13" y="28.53" width="12.88" height="2.96"/><rect class="cls-5" x="27.96" y="34.17" width="2.96" height="2.96"/><rect class="cls-7" x="36.34" y="34.17" width="21.65" height="2.96"/><rect class="cls-5" x="17.95" y="34.17" width="7.25" height="2.96"/><rect class="cls-9" x="17.93" y="0.7" width="40.07" height="2.96"/><rect class="cls-10" x="25.06" y="6.43" width="10.7" height="2.96"/><rect class="cls-4" x="17.93" y="6.43" width="4.33" height="2.96"/><rect class="cls-4" x="38.19" y="6.43" width="19.82" height="2.96"/><rect class="cls-10" x="36.34" y="17.45" width="21.67" height="2.96"/><rect class="cls-4" x="17.93" y="93.51" width="15.01" height="2.96"/><rect class="cls-5" x="36.35" y="93.51" width="11.92" height="2.96"/><rect class="cls-6" x="17.93" y="88" width="15.01" height="2.96"/><rect class="cls-4" x="17.93" y="82.49" width="17.96" height="2.96"/><rect class="cls-7" x="38.66" y="82.49" width="9.61" height="2.96"/><rect class="cls-6" x="17.93" y="76.92" width="24.9" height="2.96"/><rect class="cls-8" x="45.13" y="76.92" width="12.88" height="2.96"/><rect class="cls-5" x="27.96" y="71.28" width="2.96" height="2.96"/><rect class="cls-7" x="36.34" y="71.28" width="21.65" height="2.96"/><rect class="cls-5" x="17.95" y="71.28" width="7.25" height="2.96"/><rect class="cls-9" x="17.93" y="104.75" width="40.07" height="2.96"/><rect class="cls-10" x="25.06" y="99.02" width="10.7" height="2.96"/><rect class="cls-4" x="17.93" y="99.02" width="4.33" height="2.96"/><rect class="cls-4" x="38.19" y="99.02" width="19.82" height="2.96"/><rect class="cls-10" x="36.34" y="88" width="21.67" height="2.96"/><path class="cls-1" d="M276.25,16.79V9.92h9.09v6.87Zm0,31.3v-28h9.09v28Z"/><path class="cls-1" d="M304.66,28.61c-.17-2-1.08-3-3.86-3s-3.69.68-3.69,1.82c0,.85,1.25,1.65,3.3,2.22,7.78,2.1,13.41,3.18,13.41,9.83,0,5.62-2.9,9.32-12.73,9.32-8.47,0-13.46-3.81-13.58-9.72h9.26c0,1.82,1.59,3.3,4.43,3.3,2.56,0,3.86-.51,3.86-1.76s-.51-1.93-2.84-2.5c-10.91-2.56-13.69-5.34-13.69-10.68,0-4.15,3-8.07,12.5-8.07,8.35,0,11.59,3.47,12,9.2Z"/><path class="cls-11" d="M262.63,58.18a41.45,41.45,0,0,1-9.9-26.8,37.9,37.9,0,0,1,9.9-25.77h6.94a53.45,53.45,0,0,0-7,25.89,56.82,56.82,0,0,0,7,26.67Z"/><path class="cls-4" d="M316.71,58.18a57.46,57.46,0,0,0,6.94-26.67,53.38,53.38,0,0,0-6.94-25.89h6.94a37.9,37.9,0,0,1,9.9,25.77,41.45,41.45,0,0,1-9.9,26.8Z"/></g></g></svg>