<svg xmlns="http://www.w3.org/2000/svg" viewBox="0 0 313.98 135.13"><defs><style>.cls-1{fill:#4c4c4d;}.cls-2{fill:#3997d3;}.cls-3{fill:#e54d3c;}.cls-4{fill:#edf0f1;}.cls-5{fill:#bdc3c7;}.cls-6{fill:#f47a37;}.cls-7{fill:#e75825;}.cls-8{fill:#4c7abd;}.cls-9{fill:#8797ca;}.cls-10{fill:#fabf13;}.cls-11{fill:#f49e1e;}.cls-12{fill:#3b97d3;}.cls-13{fill:#50ba6f;}.cls-14{fill:#925ea7;}</style></defs><title>Asset 10</title><g id="Layer_2" data-name="Layer 2"><g id="Layer_1-2" data-name="Layer 1"><path class="cls-1" d="M262.65,34.94V28.78h8.14v6.16Zm0,28v-25h8.14V63Z"/><path class="cls-1" d="M288.1,45.53c-.15-1.78-1-2.65-3.46-2.65s-3.31.61-3.31,1.63c0,.76,1.12,1.48,3,2,7,1.88,12,2.85,12,8.81,0,5-2.6,8.35-11.4,8.35-7.58,0-12.06-3.41-12.16-8.7H281c0,1.63,1.42,3,4,3,2.29,0,3.46-.46,3.46-1.58s-.46-1.73-2.54-2.24c-9.77-2.29-12.27-4.78-12.27-9.57,0-3.72,2.7-7.23,11.2-7.23,7.48,0,10.38,3.1,10.74,8.25Z"/><path class="cls-2" d="M250.44,72a37.14,37.14,0,0,1-8.87-24,34,34,0,0,1,8.87-23.09h6.22a47.88,47.88,0,0,0-6.27,23.19A50.91,50.91,0,0,0,256.66,72Z"/><path class="cls-3" d="M298.89,72a51.48,51.48,0,0,0,6.22-23.9,47.82,47.82,0,0,0-6.22-23.19h6.22A34,34,0,0,1,314,48a37.14,37.14,0,0,1-8.87,24Z"/><path class="cls-1" d="M129.58,48.52C127.75,58.42,120.73,65,110.37,65c-11.67,0-20.59-7.8-20.59-22.75,0-14.75,7.93-23.73,20.72-23.73,11.15,0,18.23,7,19.08,15.74H118.37c-.92-4.2-4-6.1-7.8-6.1-6.69,0-9.44,5.11-9.44,13.44s2.56,13.64,8.92,13.64c4.92,0,7.28-2.49,8.33-6.69Z"/><path class="cls-1" d="M130.57,47.34c0-10.23,6.49-17,17-17s16.78,6.69,16.78,17-6.49,17-16.78,17C136.86,64.32,130.57,57.37,130.57,47.34Zm23.21,0c0-5.77-2-8.13-6.23-8.13s-6.16,2.36-6.16,8.13,1.9,8.2,6.16,8.2S153.78,53,153.78,47.34Z"/><path class="cls-1" d="M188.33,63.47l-.13-3.67a8.73,8.73,0,0,1-7.8,4.52c-8.13,0-14-6.62-14-17.37,0-9.38,4.72-16.59,13-16.59,3.74,0,6.95,1.11,8.59,4.52V19.41h10.29V63.47Zm.13-16c0-5.9-2.36-8.2-5.84-8.2s-5.57,2.23-5.57,8.2,2.1,8.33,5.57,8.33S188.46,53.37,188.46,47.47Z"/><path class="cls-1" d="M211.54,50c.26,3.28,2.56,6,5.51,6,2,0,3.93-.85,4.26-2h10.75c-2,6.62-7.47,10.36-14.49,10.36-11,0-16.52-6-16.52-17.57,0-10,5.84-16.39,15.93-16.39,9.18,0,15.6,5.44,15.6,16.13a31.79,31.79,0,0,1-.2,3.47Zm10.56-6.1c-.33-3.67-2-5.24-5.18-5.24s-4.92,1.57-5.24,5.24Z"/><path class="cls-1" d="M159,101c-.94,7.62-7.35,12.77-15.51,12.77-9.16,0-15.44-5.95-15.44-17.71s6.28-16.91,15.71-16.91c8.82,0,14.77,4.88,15.31,12.63H148.35a4.54,4.54,0,0,0-4.61-3.81c-2.61,0-5.08,1.67-5.08,7.82s2.47,9,4.81,9c2.61,0,4.61-1.27,4.81-3.81Z"/><path class="cls-1" d="M163,76V68h10.7V76Zm0,36.83V80h10.7v32.89Z"/><path class="cls-1" d="M188.84,99.11c.27,3.34,2.61,6.15,5.62,6.15,2.07,0,4-.87,4.34-2.07h11c-2.07,6.75-7.62,10.56-14.77,10.56-11.23,0-16.85-6.08-16.85-17.91,0-10.16,5.95-16.71,16.24-16.71,9.36,0,15.91,5.55,15.91,16.44a32.41,32.41,0,0,1-.2,3.54Zm10.76-6.22c-.33-3.74-2-5.35-5.28-5.35s-5,1.6-5.35,5.35Z"/><path class="cls-1" d="M234.3,112.88V92c0-3.21-1.54-4.48-4.41-4.48s-4.75,1.27-4.75,4.48v20.86h-10.7V80H224.6v3.48c1.8-3,4.88-4.34,9.16-4.34,6.62,0,11.3,4.34,11.3,10v23.8Z"/><path class="cls-1" d="M280.35,101c-.94,7.62-7.35,12.77-15.51,12.77-9.16,0-15.44-5.95-15.44-17.71s6.28-16.91,15.71-16.91c8.82,0,14.77,4.88,15.31,12.63H269.65A4.54,4.54,0,0,0,265,87.94c-2.61,0-5.08,1.67-5.08,7.82s2.47,9,4.81,9c2.61,0,4.61-1.27,4.81-3.81Z"/><path class="cls-1" d="M292.52,99.11c.27,3.34,2.61,6.15,5.62,6.15,2.07,0,4-.87,4.34-2.07h11c-2.07,6.75-7.62,10.56-14.77,10.56-11.23,0-16.85-6.08-16.85-17.91,0-10.16,5.95-16.71,16.24-16.71,9.36,0,15.91,5.55,15.91,16.44a32.41,32.41,0,0,1-.2,3.54Zm10.76-6.22c-.33-3.74-2-5.35-5.28-5.35s-5,1.6-5.35,5.35Z"/><path class="cls-4" d="M61.85,24.91c-.46-1-20.73,6.1-20.73,6.1s-20.26-7.08-20.73-6.1l.08.06c-17.41,36.76,6,77.71,6,77.71a2.77,2.77,0,0,0,2.43,1.43H53.51a2.68,2.68,0,0,0,2.4-1.43s23.35-41,5.91-77.74Z"/><path class="cls-5" d="M61.82,24.92c17.44,36.77-5.91,77.74-5.91,77.74a2.68,2.68,0,0,1-2.4,1.43H41.12V31C51.69,30.33,58.25,27.41,61.82,24.92Z"/><path class="cls-6" d="M41.12,0C33.43,0,24.59,16.05,20.39,24.91,24,27.4,30.55,30.33,41.12,31c10.57-.68,17.16-3.62,20.73-6.1C57.65,16.06,48.81,0,41.12,0Z"/><path class="cls-7" d="M41.12,0V31c10.57-.68,17.16-3.62,20.73-6.1C57.65,16.06,48.81,0,41.12,0Z"/><path class="cls-6" d="M20.5,75l8.4,23.54A1,1,0,0,1,27.83,100s-15.68-1.65-15.7,13.08c0,0,.06,1.29-1.1,1.29H5a2.66,2.66,0,0,1-2.24-1.47S-10.32,83,20.5,75Z"/><path class="cls-7" d="M61.74,75l-8.4,23.54A1,1,0,0,0,54.41,100s15.68-1.65,15.7,13.08c0,0-.06,1.29,1.1,1.29h6a2.66,2.66,0,0,0,2.24-1.47S92.56,83,61.74,75Z"/><circle class="cls-8" cx="41.04" cy="52.3" r="15.11"/><path class="cls-4" d="M41,64.47A12.17,12.17,0,1,1,53.21,52.3,12.18,12.18,0,0,1,41,64.47Z"/><path class="cls-1" d="M114.52,81.59C114.45,77.92,112.31,76,107,76c-4.21,0-6.42,1.07-6.42,4,0,1.74,1.14,3.41,5.75,4.75,13.9,4.08,20.26,5.88,20.26,16.11,0,8.69-6.89,13.57-17.18,13.57-13.84,0-19.85-5.08-20.19-14.84H99.81c.13,3.48,3.68,5.61,8,5.61,6.15,0,8-1.54,8-4.34,0-2.47-1.6-3.61-6.28-5.08C95.2,91.35,90.19,89.08,90.19,80.46c0-7.69,5.48-13.44,16.64-13.44,10.76,0,17.58,5.95,18.12,14.57Z"/><rect class="cls-9" x="31.99" y="105.27" width="12.77" height="3.47"/><rect class="cls-10" x="46.41" y="105.27" width="4.93" height="3.47"/><rect class="cls-3" x="37.38" y="110.76" width="16.25" height="3.47"/><rect class="cls-11" x="29.75" y="110.76" width="6.2" height="3.47"/><rect class="cls-11" x="37.38" y="126.65" width="4.36" height="3.47"/><rect class="cls-12" x="43.37" y="126.65" width="9.03" height="3.47"/><rect class="cls-13" x="29.75" y="126.65" width="6.2" height="3.47"/><rect class="cls-13" x="34.52" y="115.75" width="6.52" height="3.47"/><rect class="cls-10" x="43.07" y="115.75" width="6.52" height="3.47"/><rect class="cls-14" x="36.99" y="131.65" width="10.71" height="3.47"/><rect class="cls-11" x="24.41" y="115.75" width="8.21" height="3.47"/><rect class="cls-12" x="51.28" y="115.75" width="8.21" height="3.47"/><rect class="cls-3" x="33.68" y="121.06" width="16.71" height="3.47"/><rect class="cls-11" x="22.44" y="121.06" width="9.13" height="3.47"/><rect class="cls-11" x="52.33" y="121.06" width="9.13" height="3.47"/></g></g></svg>